<svg xmlns="http://www.w3.org/2000/svg" width="256" height="256" viewBox="0 0 100 100"><rect width="100" height="100" rx="20" fill="#4f4f4f"></rect><path d="M14.45 67.70L12.05 67.70Q11.55 67.70 11.22 67.38Q10.90 67.05 10.90 66.55L10.90 66.55L10.90 42.85Q10.90 42.35 11.22 42.03Q11.55 41.70 12.05 41.70L12.05 41.70L14.45 41.70Q14.95 41.70 15.28 42.03Q15.60 42.35 15.60 42.85L15.60 42.85L15.60 66.55Q15.60 67.05 15.28 67.38Q14.95 67.70 14.45 67.70L14.45 67.70ZM14.80 36.85L11.65 36.85Q11.15 36.85 10.82 36.53Q10.50 36.20 10.50 35.70L10.50 35.70L10.50 33Q10.50 32.50 10.82 32.15Q11.15 31.80 11.65 31.80L11.65 31.80L14.80 31.80Q15.30 31.80 15.65 32.15Q16 32.50 16 33L16 33L16 35.70Q16 36.20 15.65 36.53Q15.30 36.85 14.80 36.85L14.80 36.85ZM30.25 68.20L30.25 68.20Q27.75 68.20 25.70 67.20Q23.65 66.20 22.40 64.50Q21.15 62.80 21.15 60.65L21.15 60.65Q21.15 57.20 23.95 55.15Q26.75 53.10 31.25 52.45L31.25 52.45L38.70 51.40L38.70 49.95Q38.70 47.55 37.33 46.20Q35.95 44.85 32.85 44.85L32.85 44.85Q30.65 44.85 29.25 45.75Q27.85 46.65 27.30 48.05L27.30 48.05Q27 48.80 26.25 48.80L26.25 48.80L24 48.80Q23.45 48.80 23.18 48.48Q22.90 48.15 22.90 47.70L22.90 47.70Q22.90 46.95 23.48 45.85Q24.05 44.75 25.25 43.70Q26.45 42.65 28.33 41.92Q30.20 41.20 32.90 41.20L32.90 41.20Q35.90 41.20 37.95 41.98Q40 42.75 41.17 44.05Q42.35 45.35 42.88 47Q43.40 48.65 43.40 50.35L43.40 50.35L43.40 66.55Q43.40 67.05 43.08 67.38Q42.75 67.70 42.25 67.70L42.25 67.70L39.95 67.70Q39.40 67.70 39.10 67.38Q38.80 67.05 38.80 66.55L38.80 66.55L38.80 64.40Q38.15 65.30 37.05 66.17Q35.95 67.05 34.30 67.63Q32.65 68.20 30.25 68.20ZM31.30 64.45L31.30 64.45Q33.35 64.45 35.05 63.58Q36.75 62.70 37.73 60.85Q38.70 59 38.70 56.20L38.70 56.20L38.70 54.80L32.90 55.65Q29.35 56.15 27.55 57.33Q25.75 58.50 25.75 60.30L25.75 60.30Q25.75 61.70 26.58 62.63Q27.40 63.55 28.68 64Q29.95 64.45 31.30 64.45ZM63.85 68.20L63.85 68.20Q59.25 68.20 56.23 66.50Q53.20 64.80 51.65 61.75Q50.10 58.70 49.95 54.65L49.95 54.65Q49.90 52.60 49.90 50.25Q49.90 47.90 49.95 45.75L49.95 45.75Q50.10 41.70 51.65 38.65Q53.20 35.60 56.23 33.90Q59.25 32.20 63.85 32.20L63.85 32.20Q67.30 32.20 69.90 33.15Q72.50 34.10 74.23 35.70Q75.95 37.30 76.85 39.28Q77.75 41.25 77.85 43.35L77.85 43.35Q77.90 43.80 77.58 44.10Q77.25 44.40 76.80 44.40L76.80 44.40L74.05 44.40Q73.60 44.40 73.28 44.15Q72.95 43.90 72.80 43.25L72.80 43.25Q71.95 39.35 69.63 37.90Q67.30 36.45 63.85 36.45L63.85 36.45Q59.80 36.45 57.45 38.73Q55.10 41 54.95 46L54.95 46Q54.80 50.10 54.95 54.40L54.95 54.40Q55.10 59.40 57.45 61.68Q59.80 63.95 63.85 63.95L63.85 63.95Q67.30 63.95 69.63 62.50Q71.95 61.05 72.80 57.15L72.80 57.15Q72.95 56.50 73.28 56.25Q73.60 56 74.05 56L74.05 56L76.80 56Q77.25 56 77.58 56.28Q77.90 56.55 77.85 57L77.85 57Q77.75 59.10 76.85 61.10Q75.95 63.10 74.23 64.70Q72.50 66.30 69.90 67.25Q67.30 68.20 63.85 68.20ZM88.30 67.70L84.70 67.70Q84.20 67.70 83.88 67.38Q83.55 67.05 83.55 66.55L83.55 66.55L83.55 62.95Q83.55 62.45 83.88 62.13Q84.20 61.80 84.70 61.80L84.70 61.80L88.30 61.80Q88.80 61.80 89.15 62.13Q89.50 62.45 89.50 62.95L89.50 62.95L89.50 66.55Q89.50 67.05 89.15 67.38Q88.80 67.70 88.30 67.70L88.30 67.70Z" fill="#fff"></path></svg>